#!OML:ASF I:\Random Stuff\random\construction\7_22_03\Session 2\subj1.ASF
:FULLY-SPECIFIED
:DEGREES
1118
root 4.0445 17.784 -12.1727 40.7757 -8.56133 -9.40604
lowerback 41.9302 -6.49067 -0.968321
upperback 12.595 -8.74772 -5.47774
thorax -6.5028 -3.93078 -1.81345
lowerneck -19.8103 1.01233 -3.38412
upperneck 29.6389 3.42906 -2.9073
head 13.3044 0.629302 0.00681912
rclavicle 1.59028e-014 1.94809e-014
rhumerus -17.5365 30.9576 -56.184
rradius 132.259
rwrist -3.46416
rhand -49.5949 27.9538
rfingers 7.12502
rthumb -22.2003 -0.791333
lclavicle 1.59028e-014 1.94809e-014
lhumerus 49.3791 -23.7677 5.65613
lradius 126.134
lwrist 64.6639
lhand -45.4508 -481.045
lfingers 7.12502
lthumb -198.217 -330.212
rfemur -61.6547 -6.45691 38.1832
rtibia 31.3519
rfoot -11.3808 8.42714
rtoes -58.0966
lfemur -56.896 9.76477 4.26
ltibia 38.011
lfoot -16.5815 6.7311
ltoes -61.5111
1119
root 4.04996 17.7845 -12.151 40.9088 -8.83587 -9.48618
lowerback 41.7374 -6.42405 -0.971753
upperback 12.5893 -8.67028 -5.43411
thorax -6.44224 -3.90243 -1.80776
lowerneck -19.956 1.12675 -3.15388
upperneck 29.6765 3.52144 -2.91562
head 13.3539 0.689591 -0.0195822
rclavicle 4.13472e-014 -5.96354e-015
rhumerus -17.4568 31.1447 -56.1007
rradius 132.279
rwrist -3.37763
rhand -49.4803 27.836
rfingers 7.12502
rthumb -22.0902 -0.922154
lclavicle 4.13472e-014 -5.96354e-015
lhumerus 49.3407 -23.5823 4.84661
lradius 126.78
lwrist 67.0635
lhand -45.0672 -480.133
lfingers 7.12502
lthumb -197.848 -329.334
rfemur -61.6487 -6.31534 38.1345
rtibia 31.2873
rfoot -11.4033 8.5756
rtoes -58.1249
lfemur -56.8707 10.1558 4.00633
ltibia 38.0416
lfoot -16.6778 6.55509
ltoes -61.4818
1120
root 4.05761 17.7861 -12.1322 41.0054 -9.00656 -9.47644
lowerback 41.6397 -6.40311 -0.900744
upperback 12.5444 -8.61573 -5.35861
thorax -6.45746 -3.88074 -1.78847
lowerneck -20.017 1.19846 -3.02279
upperneck 29.7438 3.57582 -2.89876
head 13.3962 0.726294 -0.0261655
rclavicle -5.725e-014 1.13307e-014
rhumerus -17.4972 31.3625 -55.9537
rradius 132.375
rwrist -3.48928
rhand -49.3138 27.4723
rfingers 7.12502
rthumb -21.9304 -1.30465
lclavicle -5.725e-014 1.13307e-014
lhumerus 49.2626 -23.4606 4.16561
lradius 127.479
lwrist 69.3827
lhand -44.6888 -479.067
lfingers 7.12502
lthumb -197.484 -328.301
rfemur -61.6576 -6.29435 38.0675
rtibia 31.2075
rfoot -11.3623 8.71388
rtoes -58.0264
lfemur -56.893 10.3403 3.78143
ltibia 38.0756
lfoot -16.7199 6.45481
ltoes -61.46
1121
root 4.06544 17.7874 -12.1152 41.1237 -9.13103 -9.45536
lowerback 41.5993 -6.38591 -0.856029
upperback 12.454 -8.57192 -5.23692
thorax -6.52883 -3.8635 -1.69764
lowerneck -20.0707 1.25545 -2.91506
upperneck 29.832 3.63688 -2.94047
head 13.4478 0.754695 -0.0506844
rclavicle -2.8625e-014 2.96189e-014
rhumerus -17.5984 31.7741 -55.8232
rradius 132.438
rwrist -3.42234
rhand -49.3795 27.1242
rfingers 7.12502
rthumb -21.9934 -1.64544
lclavicle -2.8625e-014 2.96189e-014
lhumerus 49.049 -23.4969 3.51228
lradius 127.985
lwrist 71.4988
lhand -43.7712 -476.527
lfingers 7.12502
lthumb -196.601 -325.837
rfemur -61.6933 -6.25553 37.9841
rtibia 31.1192
rfoot -11.3011 8.79799
rtoes -58.0157
lfemur -56.9382 10.3999 3.65055
ltibia 38.0916
lfoot -16.7292 6.50992
ltoes -61.4281
1122
root 4.0712 17.7908 -12.0974 41.1744 -9.2685 -9.483
lowerback 41.6236 -6.34825 -0.838199
upperback 12.3952 -8.51364 -5.11611
thorax -6.58033 -3.8402 -1.59881
lowerneck -20.1646 1.32079 -2.76417
upperneck 29.912 3.71326 -3.03324
head 13.5072 0.78733 -0.0997111
rclavicle 3.18055e-014 -2.25621e-014
rhumerus -17.6605 32.3649 -55.6977
rradius 132.359
rwrist -2.78341
rhand -50.1158 26.6242
rfingers 7.12502
rthumb -22.7003 -2.06057
lclavicle 3.18055e-014 -2.25621e-014
lhumerus 48.8126 -23.5876 2.80767
lradius 128.238
lwrist 73.3476
lhand -42.186 -472.713
lfingers 7.12502
lthumb -195.074 -322.144
rfemur -61.6254 -6.12738 37.8436
rtibia 31.0552
rfoot -11.3285 8.77111
rtoes -58.1467
lfemur -56.8595 10.4047 3.6174
ltibia 38.0921
lfoot -16.7361 6.65701
ltoes -61.316
1123
root 4.07576 17.7957 -12.0783 41.1562 -9.37912 -9.47564
lowerback 41.6338 -6.30465 -0.74174
upperback 12.3757 -8.41825 -5.00877
thorax -6.59478 -3.7994 -1.57129
lowerneck -20.1857 1.3295 -2.69154
upperneck 29.9714 3.70062 -3.02685
head 13.5376 0.789 -0.111884
rclavicle 1.90833e-014 9.93923e-016
rhumerus -17.7431 32.7511 -55.3957
rradius 132.338
rwrist -2.37599
rhand -50.6633 26.0211
rfingers 7.12502
rthumb -23.2256 -2.59838
lclavicle 1.90833e-014 9.93923e-016
lhumerus 48.7531 -23.7843 2.13472
lradius 128.336
lwrist 74.9551
lhand -40.3861 -468.955
lfingers 7.12502
lthumb -193.34 -318.508
rfemur -61.5036 -6.0471 37.6704
rtibia 31.0048
rfoot -11.3653 8.73475
rtoes -58.2014
lfemur -56.7217 10.2988 3.60794
ltibia 38.0865
lfoot -16.7858 6.8141
ltoes -61.2572
1124
root 4.07667 17.7963 -12.063 41.3029 -9.46935 -9.49086
lowerback 41.3816 -6.30214 -0.630523
upperback 12.3899 -8.36543 -4.93317
thorax -6.50376 -3.78144 -1.58356
lowerneck -20.2524 1.35339 -2.6117
upperneck 30.0169 3.71529 -3.04096
head 13.5729 0.800009 -0.128347
rclavicle -2.22639e-014 -3.22031e-014
rhumerus -17.6616 33.0667 -55.0076
rradius 132.425
rwrist -2.35771
rhand -50.8622 25.7696
rfingers 7.12502
rthumb -23.4164 -2.82572
lclavicle -2.22639e-014 -3.22031e-014
lhumerus 48.3525 -23.6182 1.75876
lradius 128.85
lwrist 76.7611
lhand -39.4779 -467.069
lfingers 7.12502
lthumb -192.464 -316.677
rfemur -61.5758 -5.94329 37.6282
rtibia 30.9761
rfoot -11.3474 8.80157
rtoes -58.0618
lfemur -56.778 10.3782 3.56015
ltibia 38.0943
lfoot -16.8685 6.85534
ltoes -61.3159
